<svg fill="none" height="179" viewBox="0 0 154 179" width="154" xmlns="http://www.w3.org/2000/svg" xmlns:xlink="http://www.w3.org/1999/xlink"><clipPath id="a"><path d="m0 0h154v179h-154z"/></clipPath><g clip-path="url(#a)"><path clip-rule="evenodd" d="m116.726 11.1171h-105.6559v151.4179l2.9426 2.956 17.0956-17.169c2.242-2.251 5.7452-2.251 7.8471 0l17.0956 17.169 17.0955-17.169c2.242-2.251 5.7452-2.251 7.8471 0l17.0956 17.169 17.0958-17.169c2.242-2.251 5.745-2.251 7.847 0l17.095 17.169 2.943-2.956v-125.1026zm-111.1209-11.1171h113.3629c1.542 0 2.943.703616 3.924 1.68868l29.426 29.55192c1.121 1.1258 1.682 2.533 1.682 3.9402v129.7472c0 1.548-.701 2.955-1.682 3.94l-8.407 8.443c-2.242 2.252-5.745 2.252-7.847 0l-17.096-17.168-17.095 17.168c-2.2424 2.252-5.7456 2.252-7.8475 0l-16.9554-17.027-17.0956 17.168c-2.242 2.252-5.7452 2.252-7.8471 0l-17.0956-17.168-17.0955 17.168c-2.242 2.252-5.7452 2.252-7.8471 0l-8.40767-8.443c-1.12102-1.126-1.68153-2.533-1.68153-3.941v-159.43907c0-3.09591 2.52229-5.62893 5.6051-5.62893z" fill="#2468ef" fill-rule="evenodd"/><path clip-rule="evenodd" d="m5.60498 5.62891h113.36302l29.427 29.55189v129.7472l-8.408 8.443-21.019-20.968-21.0191 20.968-20.879-20.968-21.0191 20.968-21.0191-20.968-21.0191 20.968-8.40762-8.443z" fill="#fff" fill-rule="evenodd"/><path clip-rule="evenodd" d="m113.363 35.1808v-29.55187c0-1.40723.561-2.81446 1.682-3.94025 2.242-2.251573 5.745-2.251573 7.847 0l29.427 29.55192c.981.985 1.681 2.3923 1.681 3.9402 0 3.0959-2.522 5.629-5.605 5.629h-29.427c-3.082 0-5.605-2.5331-5.605-5.629zm11.21-16.0424v10.4135h10.51z" fill="#2468ef" fill-rule="evenodd"/><path clip-rule="evenodd" d="m118.968 5.62891v29.55189h29.427z" fill="#d3e1fc" fill-rule="evenodd"/><path clip-rule="evenodd" d="m56.0508 162.957-21.0191-21.108-21.0191 21.108-8.40762-8.443v10.414l8.40762 8.443 21.0191-20.968 21.0191 20.968 21.0191-20.968 20.879 20.968 21.0191-20.968 21.019 20.968 8.408-8.443v-10.414l-8.408 8.443-21.019-21.108-21.0191 21.108-20.879-21.108z" fill="#d3e1fc" fill-rule="evenodd"/><g fill="#2468ef"><path d="m58.7002 42.4587-20.8076 20.8961 3.9633 3.9802 20.8077-20.8961z"/><path d="m41.8559 42.4612-3.9633 3.9802 20.8076 20.8961 3.9634-3.9802z"/><path d="m112.09 42.4657-20.8073 20.8962 3.9634 3.9802 20.8079-20.8961z"/><path d="m95.2471 42.4676-3.9634 3.9802 20.8073 20.8962 3.964-3.9803z"/><path d="m35.1722 93.1589c-1.5414 0-2.8026-1.2665-2.8026-2.8145 0-1.5479 1.2612-2.8144 2.8026-2.8144h83.6558c1.542 0 2.803 1.2665 2.803 2.8144 0 1.548-1.261 2.8145-2.803 2.8145z"/><path d="m116.025 93.1587h-17.2353v8.7253c0 2.392.9809 4.503 2.5223 6.051 1.541 1.548 3.783 2.533 6.025 2.533 2.383 0 4.485-.985 6.026-2.533s2.522-3.8 2.522-6.051v-8.7253zm-20.0379-5.4882h22.8409 2.802v2.8145 11.399c0 3.94-1.541 7.458-4.203 10.132-2.523 2.533-6.166 4.221-10.09 4.221-3.923 0-7.4263-1.548-10.0887-4.221-2.5223-2.533-4.2039-6.192-4.2039-10.132v-11.399-2.8145z"/><path d="m104.675 90.485c0-1.548 1.261-2.8145 2.803-2.8145 1.541 0 2.802 1.2665 2.802 2.8145v7.7398c0 1.5479-1.261 2.8142-2.802 2.8142-1.542 0-2.803-1.2663-2.803-2.8142z"/></g><path clip-rule="evenodd" d="m107.338 101.039c-1.542 0-2.803-1.2663-2.803-2.8143v-4.9253h-5.8851v8.7246c0 2.393.9809 4.503 2.5221 6.051 1.542 1.548 3.784 2.533 6.026 2.533 2.382 0 4.484-.985 6.025-2.533 1.542-1.548 2.522-3.799 2.522-6.051v-8.7246h-5.885v4.9253c.28 1.548-.981 2.8143-2.522 2.8143z" fill="#d3e1fc" fill-rule="evenodd"/></g></svg>