<svg enable-background="new 0 0 461 114.9" viewBox="0 0 461 114.9" xmlns="http://www.w3.org/2000/svg"><path d="m346 0v115h115v-115zm57.5 88.3c-17 0-30.8-13.8-30.8-30.8s13.8-30.8 30.8-30.8 30.8 13.8 30.8 30.8-13.8 30.8-30.8 30.8z" fill="#6f6"/><g fill="#2568ef"><path d="m44.5 71.5c0 10.2-10.4 16.9-21.6 16.9-11.4 0-19.1-5.7-22.9-11.9l9.5-6.1c2.9 4.9 7.6 7.6 13.2 7.8 4.8.2 8.4-1.5 9.5-4.8 1-3-.6-6.1-4.3-7.7-3.2-1.4-12.1-5.5-13.9-6.4-6.7-3.2-11.4-7.3-11.4-15.2-.1-10.2 9.1-17 20.4-17 9.5 0 16.5 4.5 20.6 10.8l-9.4 5.5c-2-3.3-5.8-6.5-10.7-6.5-5.8 0-8.9 2.7-9.5 5.8-.6 3.5 1.9 5.9 5.7 7.5 2.5 1.1 11 5.1 13.9 6.5 5.8 2.7 10.9 7.1 10.9 14.8z"/><path d="m81.8 84.6c-3 1.9-7.3 3.3-11.2 3.3-8.2 0-12.6-6.1-12.6-13.8v-20.5h-9.4v-8.3h9.5v-12.8h10.7v12.8h12.4v8.3h-12.3v20c0 3.6 1.7 4.9 5 4.9 1.6.1 3.5-.6 4.5-1.1z"/><path d="m121.5 70.1h-26.1c1.5 4.8 6.1 8.2 10.8 8.2 4.5 0 7.8-2 9.5-3.8.4-.5.9-1.1.9-1.1l7.7 6.5c-3.2 4.1-9.7 8.1-18.1 8.1-11.8 0-21.7-9.8-21.7-21.9s9.9-21.9 21.7-21.9c6.8 0 13.6 3.3 17.5 8.8 2.6 3.6 3.9 7.5 3.9 11.8-.1 2.7-2.1 5.3-6.1 5.3zm-26.2-7.8h21.2c-1-3.7-4.3-8.1-10.3-8.1-5.1 0-9.5 3.5-10.9 8.1z"/><path d="m177.2 63.7v23.2h-10.6v-23c0-5.3-4.4-9.5-9.8-9.5s-9.8 4.1-9.8 10.1v22.3h-10.6v-41.5h9.7v4.7c3.3-4 8.1-5.7 12.9-5.7 11.2 0 18.2 8.5 18.2 19.4z"/><path d="m226.2 79.8c-4.1 5.2-10.8 8.4-17.9 8.4-12.3 0-22.7-9.9-22.7-22.1s10.4-22.1 22.7-22.1c7 0 13.6 3.3 17.7 8.3l-8.7 5.9c-2.1-2.4-5.6-3.9-9.1-3.9-6.5 0-11.7 5.2-11.7 11.8 0 6.5 5.2 11.9 11.7 11.9 3.6 0 7.2-1.6 9.3-4.2z"/><path d="m231.7 34.4c0-3.5 3.1-6.4 6.9-6.4 3.7 0 6.8 2.9 6.8 6.4s-3.1 6.3-6.8 6.3c-3.9 0-6.9-2.8-6.9-6.3zm1.4 10.9h10.6v41.5h-10.6z"/><path d="m270.4 78.4 2.9 7.1c-2.8 1.7-6.2 2.4-8.1 2.4-6.7 0-10.6-4.8-10.6-11.7v-48.1h10.7v47.5c0 1.2.6 1.9 1.2 2.4.8.5 1.9.8 3.9.4z"/><path d="m319.3 45.3v41.6h-9.7v-4.4c-3 3.4-7.9 5.8-13.1 5.8-12.3 0-21.6-9.9-21.6-22 0-12.2 9.3-22 21.6-22 5.2 0 10.1 2.3 13.1 5.6v-4.6zm-10.7 25.5v-9.3c-1.9-4.2-6.1-7.2-11-7.2-2.5 0-4.9.8-6.9 2.1-3.1 2.1-5.2 5.7-5.2 9.7s2.1 7.7 5.2 9.7c2 1.4 4.3 2.1 6.9 2.1 4.9.1 9.1-2.8 11-7.1z"/><circle cx="430.2" cy="57.5" r="30.8"/></g><path d="m430.2 26.7c-4.8 0-9.3 1.1-13.3 3 10.4 5 17.5 15.6 17.5 27.8 0 12.3-7.1 22.8-17.5 27.8 4 1.9 8.6 3 13.3 3 17 0 30.8-13.8 30.8-30.8s-13.8-30.8-30.8-30.8z" fill="#0f6860"/></svg>