<?xml version="1.0" encoding="UTF-8"?> <!-- Generator: Adobe Illustrator 23.0.4, SVG Export Plug-In . SVG Version: 6.00 Build 0) --> <svg xmlns="http://www.w3.org/2000/svg" xmlns:xlink="http://www.w3.org/1999/xlink" id="Layer_1" x="0px" y="0px" viewBox="0 0 944 620" style="enable-background:new 0 0 944 620;" xml:space="preserve"> <style type="text/css"> .st0{fill:#F63C3D;} .st1{fill:#17BAFA;} .st2{opacity:0.93;} .st3{fill:#003D80;} .st4{fill:#D2DA20;} .st5{opacity:0.83;} .st6{fill:#007165;} .st7{fill:#45C6EB;} </style> <image style="display:none;overflow:visible;enable-background:new ;" width="858" height="675" transform="matrix(0.9994 0 0 0.9994 33.2429 -36.6848)"> </image> <g> <g> <path class="st0" d="M561.7,69.8c2.5-2.8,5.8-6,10.9-6.7c3.8-0.5,7.2,0,10,2.7c8,7.4,16.3,14.6,24,22.4 c17.3,17.7,33,36.7,48.2,56.3c14.4,18.5,27.7,37.9,40.3,57.7c3.7,5.9,7.5,11.7,11.2,17.6c3.4,5.4,6.8,10.9,10,16.4 c3.3,5.5,6.5,11.1,9.8,16.7c3,5.1,6.1,10.2,9,15.4c4.5,8.2,8.8,16.5,13.1,24.8c3.1,6.1,6.1,12.3,9,18.5 c3.8,7.8,7.7,15.5,11.1,23.5c3.4,7.7,6.3,15.6,9.3,23.5c2.9,7.7,5.7,15.4,8.3,23.1c0.7,2.2,0.8,4.5,1.5,6.8 c1.8,6.5,4.1,12.9,5.4,19.5c1.9,9.2,3.2,18.5,4.6,27.9c0.6,3.6,0.9,7.3,1.3,11c0.1,0.7-0.5,1.5-0.8,2.3c-0.6-0.6-1.7-1.1-1.9-1.8 c-1.8-7.9-3-16-5.2-23.8c-3.2-11.2-6.7-22.4-10.7-33.3c-3.8-10.2-8.1-20.3-12.6-30.1c-4.7-10.1-9.8-20-15.1-29.8 s-10.8-19.5-16.6-29c-6.6-10.9-13.4-21.7-20.5-32.3c-9.6-14.4-19.3-28.8-29.3-42.9c-8.5-12-17.2-23.8-26.1-35.5 c-9.8-12.8-19.8-25.4-30.1-37.8c-9.1-10.9-18.6-21.6-28.2-32.1c-9.3-10-19.1-19.5-28.7-29.2c-3.6-3.6-7.6-6.8-11.1-10.4 C558.1,77.3,558.1,75,561.7,69.8z"></path> </g> <g> <path class="st1" d="M736.1,66.5c3.6-0.8,8.2-1.4,12.7,1c3.4,1.8,5.8,4.2,6.5,8c2.1,10.7,4.7,21.4,6.3,32.2 c3.6,24.5,5.2,49.1,6,73.9c0.7,23.4,0.2,46.9-1.3,70.3c-0.4,6.9-0.8,13.9-1.3,20.8c-0.4,6.4-0.9,12.8-1.5,19.2 c-0.6,6.4-1.2,12.8-1.9,19.2c-0.6,5.9-1,11.8-1.8,17.7c-1.2,9.3-2.5,18.5-4,27.7c-1,6.8-2.3,13.5-3.6,20.3 c-1.5,8.5-2.9,17.1-4.8,25.5c-1.8,8.2-4,16.4-6.3,24.5c-2.2,7.9-4.5,15.8-6.8,23.6c-0.7,2.2-2,4.2-2.8,6.3c-2.4,6.3-4.3,12.8-7,19 c-3.9,8.6-8.3,16.9-12.6,25.3c-1.7,3.3-3.5,6.5-5.4,9.6c-0.4,0.6-1.3,0.9-2,1.4c-0.2-0.9-0.7-1.9-0.5-2.6c3.2-7.5,7-14.7,9.8-22.3 c4-11,7.7-22,10.9-33.2c3-10.5,5.4-21.1,7.5-31.8c2.1-10.9,3.8-22,5.3-33s2.7-22.1,3.6-33.2c1-12.7,1.8-25.4,2.4-38.2 c0.7-17.3,1.2-34.6,1.5-52c0.2-14.7,0.1-29.4-0.3-44c-0.4-16.1-1.1-32.2-2.1-48.3c-1-14.2-2.3-28.4-4.1-42.5 c-1.7-13.5-4-27-6.1-40.5c-0.8-5-2.2-9.9-2.9-15C728.7,70.5,730.1,68.6,736.1,66.5z"></path> </g> <g class="st2"> <path class="st3" d="M436,108.3c0.5-3.6,1.6-8.1,5.5-11.4c2.9-2.4,6-3.8,9.9-3.2c10.8,1.8,21.8,3.3,32.5,5.6 c24.3,5.3,48,12.6,71.5,20.6c22.3,7.6,44.1,16.4,65.6,26c6.4,2.9,12.8,5.6,19.1,8.5c5.8,2.7,11.7,5.4,17.5,8.2s11.6,5.7,17.4,8.5 c5.3,2.6,10.7,5.1,16,7.9c8.3,4.4,16.5,8.9,24.6,13.4c6,3.4,11.9,6.9,17.8,10.4c7.5,4.4,15,8.7,22.3,13.4 c7.1,4.6,13.9,9.5,20.8,14.4c6.6,4.8,13.2,9.6,19.7,14.6c1.8,1.4,3.2,3.3,4.9,4.8c5.1,4.4,10.5,8.5,15.3,13.2 c6.7,6.6,12.8,13.6,19.2,20.5c2.5,2.7,4.8,5.5,7.1,8.4c0.5,0.6,0.4,1.5,0.5,2.3c-0.9-0.1-2,0-2.6-0.5 c-5.8-5.6-11.3-11.6-17.4-16.9c-8.8-7.6-17.9-14.9-27.3-21.8c-8.8-6.4-17.9-12.4-27.2-18.1c-9.5-5.8-19.3-11.2-29.1-16.5 s-19.8-10.3-29.9-15c-11.5-5.4-23.2-10.7-35-15.6c-16-6.8-32.1-13.4-48.3-19.7c-13.7-5.4-27.5-10.4-41.5-15.3 c-15.3-5.3-30.6-10.4-46.1-15.1c-13.7-4.1-27.5-7.9-41.4-11.3c-13.3-3.3-26.8-5.9-40.2-8.7c-5-1-10.1-1.5-15.1-2.7 C437.1,116.5,435.9,114.5,436,108.3z"></path> </g> <g> <path class="st4" d="M826.3,220.4c3.6,1.1,7.8,2.9,10.6,7.2c2,3.2,2.9,6.5,1.7,10.2c-3.5,10.4-6.6,20.9-10.5,31 c-9,23-19.9,45.2-31.5,67.1c-11,20.7-23.1,40.8-36,60.4c-3.8,5.8-7.6,11.7-11.5,17.5c-3.6,5.3-7.2,10.6-10.8,15.9 c-3.7,5.3-7.4,10.5-11.2,15.8c-3.4,4.8-6.8,9.8-10.3,14.5c-5.6,7.5-11.4,14.8-17.2,22.1c-4.3,5.4-8.7,10.6-13.2,15.9 c-5.6,6.6-11,13.4-16.8,19.8C663.9,524,658,530,652,536c-5.8,5.8-11.7,11.5-17.6,17.1c-1.7,1.6-3.8,2.6-5.6,4.1 c-5.2,4.3-10.1,9-15.5,13c-7.6,5.5-15.6,10.5-23.5,15.7c-3.1,2-6.3,3.9-9.5,5.7c-0.6,0.3-1.6,0.1-2.4,0.2c0.3-0.8,0.3-2,0.9-2.4 c6.5-4.9,13.4-9.3,19.5-14.5c8.9-7.5,17.7-15.3,26-23.5c7.8-7.6,15.2-15.7,22.3-23.9c7.3-8.4,14.2-17.2,20.9-26s13.3-17.9,19.6-27 c7.2-10.5,14.2-21.2,21-32c9.2-14.7,18.2-29.5,27-44.4c7.5-12.6,14.7-25.5,21.6-38.4c7.6-14.2,15.1-28.5,22.1-43 c6.2-12.8,12.1-25.8,17.6-38.9c5.3-12.6,9.9-25.4,14.8-38.2c1.8-4.8,3.1-9.7,4.9-14.4C817.9,220.2,820,219.2,826.3,220.4z"></path> </g> <g class="st5"> <path class="st6" d="M855.5,369.8c1.9,3.2,3.8,7.5,2.8,12.5c-0.7,3.7-2.3,6.8-5.7,8.6c-9.6,5.2-19.1,10.7-28.9,15.4 c-22.3,10.7-45.4,19.4-68.8,27.4c-22.2,7.6-44.8,14-67.6,19.4c-6.8,1.6-13.5,3.3-20.3,4.9c-6.2,1.5-12.5,2.9-18.8,4.2 c-6.3,1.3-12.6,2.6-18.9,3.9c-5.8,1.2-11.6,2.5-17.5,3.5c-9.2,1.6-18.4,3-27.7,4.4c-6.8,1-13.6,1.8-20.5,2.6 c-8.6,1-17.2,2.2-25.8,2.9c-8.4,0.7-16.8,0.9-25.3,1.2c-8.2,0.3-16.4,0.4-24.6,0.4c-2.3,0-4.6-0.7-6.9-0.8 c-6.7-0.4-13.5-0.3-20.2-1.2c-9.3-1.2-18.6-3-27.9-4.6c-3.6-0.6-7.2-1.5-10.8-2.4c-0.7-0.2-1.3-1-1.9-1.5c0.8-0.4,1.6-1.3,2.3-1.2 c8.1,0.9,16.1,2.4,24.2,2.8c11.6,0.6,23.3,0.9,35,0.7c10.9-0.2,21.8-1.1,32.6-2.2c11.1-1.2,22.1-2.8,33.1-4.7 c11-1.8,21.9-3.9,32.8-6.3c12.5-2.7,24.9-5.7,37.2-8.9c16.8-4.4,33.5-9,50.1-13.9c14.1-4.1,28.1-8.5,42-13.2 c15.3-5.1,30.5-10.5,45.5-16.2c13.3-5.1,26.5-10.6,39.5-16.4c12.5-5.6,24.6-11.7,36.9-17.7c4.6-2.2,8.9-5,13.5-7.1 C849.5,364,851.8,364.8,855.5,369.8z"></path> </g> <circle class="st6" cx="812.1" cy="136.9" r="15.1"></circle> <circle class="st3" cx="657.7" cy="35.8" r="15.1"></circle> <circle class="st3" cx="489.2" cy="530.8" r="15.1"></circle> <circle class="st3" cx="769.8" cy="496.1" r="15.1"></circle> <circle class="st4" cx="627.5" cy="500.6" r="15.1"></circle> <ellipse transform="matrix(0.4473 -0.8944 0.8944 0.4473 233.1864 479.2274)" class="st4" cx="504.3" cy="50.9" rx="15.1" ry="15.1"></ellipse> <circle class="st0" cx="861.6" cy="330.3" r="15.1"></circle> <g> <path class="st7" d="M57,240.3h67.3c40,0,64.9,22.7,64.9,57.1v0.5c0,38.3-30.7,58.3-68.3,58.3H87v54.9H57V240.3z M121.9,329.1 c22.7,0,36.8-12.7,36.8-30.5v-0.5c0-20-14.4-30.5-36.8-30.5H87v61.5H121.9z"></path> <path class="st7" d="M219.9,240.3h30v143.5h89.8v27.3H219.9V240.3z"></path> <path class="st7" d="M352.7,326.2v-0.5c0-48.1,37.1-88.3,89.5-88.3s89.1,39.8,89.1,87.8v0.5c0,48.1-37.1,88.3-89.5,88.3 S352.7,374.3,352.7,326.2z M499.8,326.2v-0.5c0-33.2-24.2-60.5-58.1-60.5s-57.6,26.8-57.6,60v0.5c0,33.2,24.2,60.5,58.1,60.5 S499.8,359.4,499.8,326.2z"></path> <path class="st7" d="M555,386.2l18.1-21.5c16.3,14.1,32.9,22.2,53.9,22.2c18.5,0,30.3-8.8,30.3-21.5V365 c0-12.2-6.8-18.8-38.5-26.1c-36.4-8.8-56.8-19.5-56.8-51v-0.5c0-29.3,24.4-49.5,58.3-49.5c24.9,0,44.7,7.6,62,21.5L666,282.1 c-15.4-11.5-30.7-17.6-46.4-17.6c-17.6,0-27.8,9-27.8,20.2v0.5c0,13.2,7.8,19,40.8,26.8c36.1,8.8,54.7,21.7,54.7,50v0.5 c0,32-25.1,51-61,51C600.1,413.6,575.5,404.5,555,386.2z"></path> </g> </g> </svg> 