<?xml version="1.0" encoding="utf-8"?>
<!-- Generator: Adobe Illustrator 14.0.0, SVG Export Plug-In . SVG Version: 6.00 Build 43363)  -->
<!DOCTYPE svg PUBLIC "-//W3C//DTD SVG 1.1//EN" "http://www.w3.org/Graphics/SVG/1.1/DTD/svg11.dtd">
<svg version="1.1" xmlns="http://www.w3.org/2000/svg" xmlns:xlink="http://www.w3.org/1999/xlink" x="0px" y="0px" width="180px"
	 height="60px" viewBox="0 0 180 60" enable-background="new 0 0 180 60" xml:space="preserve">
<g id="Layer_1">
</g>
<g id="Layer_2">
</g>
<g id="PRINT">
	<g>
		<g>
			<path d="M58.107,35.226c-4.35,0-5.674-0.852-5.98-1.115c-0.469-0.413-0.521-1.139-0.111-1.613
				c0.221-0.255,0.404-0.308,0.605-0.308c0.279,0,0.666,0.113,1.111,0.255l0.379,0.102c0.742,0.205,1.449,0.398,3.996,0.398
				c3.338,0,4.889-1.393,4.889-4.386c0-2.454-5.117-4.701-5.168-4.729c-3.977-1.912-6.092-4.336-6.092-6.993
				c0-1.91,0.6-3.387,1.777-4.381c1.229-1.041,2.939-1.523,5.377-1.523c1.422,0,3.094,0.163,5.102,0.509
				c0.621,0.103,1.041,0.693,0.934,1.31c-0.094,0.558-0.557,0.959-1.102,0.959c-2.049-0.331-3.705-0.49-5.014-0.49
				c-1.814,0-3.029,0.312-3.824,0.981c-0.648,0.547-0.969,1.411-0.969,2.636c0,1.734,1.57,3.375,4.654,4.865
				c1.596,0.689,6.609,3.14,6.609,6.856C65.281,32.861,62.734,35.226,58.107,35.226L58.107,35.226z"/>
			<path d="M77.529,35.226c-3.492,0-5.668-2.354-5.668-6.143v-8.975h-2.186c-0.635,0-1.143-0.511-1.143-1.139
				c0-0.629,0.508-1.137,1.143-1.137h2.186v-5.624c0-0.628,0.514-1.142,1.141-1.142c0.631,0,1.139,0.514,1.139,1.142v5.624h4.074
				c0.633,0,1.143,0.508,1.143,1.137c0,0.628-0.51,1.139-1.143,1.139H74.14v8.975c0,2.49,1.203,3.861,3.389,3.861
				c1,0,1.428-0.223,1.506-0.269c0.42-0.182,0.713-0.268,0.951-0.268c0.234,0,0.432,0.089,0.631,0.289
				c0.434,0.433,0.426,1.189-0.021,1.646C80.386,34.55,79.552,35.226,77.529,35.226L77.529,35.226z"/>
			<path d="M118.384,34.921c-0.627,0-1.141-0.51-1.141-1.143v-9.804c0-2.576-1.363-3.882-4.047-3.882
				c-2.322,0-4.154,2.02-5.039,2.988l-0.307,0.412v10.285c0,0.633-0.518,1.143-1.146,1.143s-1.141-0.51-1.141-1.143V19.277
				c0-0.634,0.512-1.146,1.141-1.146s1.146,0.512,1.146,1.146v1.132l0.488-0.461c1.557-1.457,3.102-2.138,4.857-2.138
				c3.961,0,6.334,2.305,6.334,6.165v9.804C119.531,34.412,119.017,34.921,118.384,34.921L118.384,34.921z"/>
			<path d="M154.078,34.921c-0.633,0-1.145-0.506-1.145-1.138V12.242c0-0.627,0.512-1.143,1.145-1.143
				c0.627,0,1.139,0.516,1.139,1.143v21.542C155.216,34.416,154.705,34.921,154.078,34.921L154.078,34.921z"/>
			<path d="M145.292,34.921c-0.627,0-1.145-0.506-1.145-1.138V19.279c0-0.633,0.518-1.145,1.145-1.145
				c0.625,0,1.148,0.512,1.148,1.145v14.505C146.441,34.416,145.917,34.921,145.292,34.921L145.292,34.921z"/>
			<path d="M145.292,13.72c-0.725,0-1.307-0.586-1.307-1.308c0-0.726,0.582-1.313,1.307-1.313c0.719,0,1.307,0.588,1.307,1.313
				C146.599,13.134,146.011,13.72,145.292,13.72L145.292,13.72z"/>
			<path d="M93.232,35.226c-5.223,0-8.107-3.125-8.111-8.803c0-3.133,0.854-5.509,2.535-7.069c1.848-1.713,4.115-1.845,4.764-1.845
				c0.18,0,0.293,0.006,0.316,0.011c2.234,0.006,4.047,0.737,5.316,2.126c2.342,2.545,1.971,6.291,1.971,6.325
				c-0.055,0.576-0.518,1.022-1.092,1.05h-11.49l0.035,0.324c0.291,2.558,1.514,5.6,5.756,5.6c0.365,0,0.744-0.041,1.096-0.096
				c1.287-0.334,2.469-1.072,2.809-1.288c0.178-0.136,0.395-0.201,0.629-0.201c0.387,0,0.752,0.185,0.957,0.481
				c0.363,0.517,0.232,1.229-0.285,1.586C98.193,33.623,96.138,35.226,93.232,35.226L93.232,35.226z M92.441,19.791
				c-0.32,0-1.98,0.062-3.254,1.256c-0.863,0.811-1.477,1.698-1.697,3.402l-0.043,0.335H97.74l-0.037-0.33
				c-0.115-0.956-0.445-2.293-1.338-3.274c-0.846-0.917-2.104-1.381-3.727-1.381L92.441,19.791z"/>
			<path d="M132.654,35.197c-5.232,0-8.115-3.124-8.121-8.806c0.006-5.708,2.889-8.854,8.121-8.854c2.801,0,4.822,1.49,5.195,1.788
				c0.535,0.371,0.658,1.082,0.299,1.594c-0.207,0.299-0.574,0.486-0.959,0.486c-0.238,0-0.457-0.069-0.637-0.196
				c-0.238-0.162-1.475-0.949-2.812-1.297c-0.344-0.055-0.723-0.095-1.086-0.095c-4.414,0-5.586,3.265-5.799,6.004v1.098
				c0.297,3.875,2.354,5.999,5.799,5.999c0.365,0,0.742-0.041,1.088-0.092c1.293-0.339,2.477-1.073,2.811-1.293
				c0.188-0.132,0.398-0.201,0.637-0.201c0.385,0,0.752,0.186,0.959,0.475c0.359,0.521,0.225,1.232-0.285,1.591
				C137.751,33.491,135.634,35.197,132.654,35.197L132.654,35.197z"/>
			<path d="M167.052,17.556h-0.701c-2.986,0-5.096,1.717-5.207,1.806c-0.518,0.355-0.645,1.07-0.291,1.588
				c0.209,0.293,0.58,0.476,0.961,0.476c0.236,0,0.451-0.065,0.639-0.199c0.33-0.218,1.514-0.955,2.803-1.291
				c0.357-0.052,0.73-0.095,1.096-0.095c0.162,0,0.377,0,0.701,0c1.469,0,3.637,0.869,3.637,3.159v1.444l-0.238,0.041
				c-1.012,0.187-2.693,0.454-4.225,0.699c-0.988,0.153-1.861,0.294-2.328,0.376c-1.145,0.201-4.174,0.726-4.174,4.81
				c0,2.963,2.125,4.804,5.539,4.804c1.727,0,4.027-0.499,5.24-1.133l0.211-0.114c0.07,0.559,0.537,0.995,1.117,0.995
				c0.625,0,1.143-0.506,1.143-1.138v-0.258v-8.082V23C172.974,19.107,169.964,17.556,167.052,17.556z M169.291,32.131
				c-0.758,0.306-2.473,0.763-4.027,0.763c-2.158,0-3.254-0.853-3.254-2.524c0-1.84,0.74-2.294,2.279-2.558
				c0.465-0.082,1.332-0.222,2.307-0.373c1.271-0.197,2.736-0.433,3.748-0.605l0.344-0.061v4.655
				C170.353,31.686,169.943,31.877,169.291,32.131z"/>
		</g>
		<path fill="#99F054" d="M39.57,35.42c0,2.255-1.83,4.081-4.084,4.081H10.998c-2.25,0-4.08-1.826-4.08-4.081V10.933
			c0-2.252,1.83-4.081,4.08-4.081h24.488c2.254,0,4.084,1.829,4.084,4.081V35.42z M12.019,21.133h8.162
			c0.568,0,1.02-0.453,1.02-1.017v-8.162c0-0.564-0.451-1.021-1.02-1.021h-8.162c-0.561,0-1.021,0.457-1.021,1.021v8.162
			C10.998,20.68,11.458,21.133,12.019,21.133z M26.302,29.298c-0.562,0-1.02,0.458-1.02,1.019v4.084c0,0.564,0.457,1.02,1.02,1.02
			c0.57,0,1.021-0.455,1.021-1.02v-4.084C27.324,29.756,26.873,29.298,26.302,29.298z M30.382,27.258
			c-0.561,0-1.02,0.455-1.02,1.021v6.122c0,0.564,0.459,1.02,1.02,1.02c0.57,0,1.025-0.455,1.025-1.02v-6.122
			C31.408,27.713,30.953,27.258,30.382,27.258z M34.466,25.216c-0.561,0-1.02,0.458-1.02,1.021v8.163c0,0.564,0.459,1.02,1.02,1.02
			c0.564,0,1.02-0.455,1.02-1.02v-8.163C35.486,25.674,35.031,25.216,34.466,25.216z M30.382,21.133
			c2.811,0,5.104-2.285,5.104-5.099c0-2.814-2.293-5.102-5.104-5.102s-5.1,2.287-5.1,5.102
			C25.283,18.848,27.572,21.133,30.382,21.133z M16.988,25.729c-0.184-0.316-0.523-0.513-0.883-0.513
			c-0.365,0-0.703,0.196-0.885,0.513l-4.713,8.159c-0.184,0.316-0.184,0.707,0,1.021c0.182,0.314,0.518,0.511,0.881,0.511h9.426
			c0.365,0,0.701-0.196,0.885-0.511c0.18-0.314,0.18-0.702,0-1.021L16.988,25.729z"/>
		<g>
			<path fill="#999999" d="M53.553,43.457c0.419,0,0.798,0.059,1.138,0.178c0.339,0.119,0.626,0.292,0.86,0.519
				c0.234,0.228,0.416,0.507,0.545,0.839c0.129,0.333,0.194,0.712,0.194,1.138v2.003c0,0.853-0.245,1.512-0.734,1.977
				c-0.489,0.465-1.157,0.697-2.003,0.697h-1.448c-0.125,0-0.234-0.042-0.325-0.126c-0.091-0.084-0.137-0.192-0.137-0.325v-6.45
				c0-0.133,0.045-0.241,0.137-0.325c0.09-0.083,0.199-0.125,0.325-0.125H53.553z M52.378,44.149v5.968h1.206
				c0.615,0,1.098-0.173,1.447-0.519s0.524-0.83,0.524-1.453v-2.024c0-0.629-0.175-1.115-0.524-1.458s-0.832-0.514-1.447-0.514
				H52.378z"/>
			<path fill="#999999" d="M59.636,45.46c0.636,0,1.134,0.178,1.495,0.535c0.36,0.356,0.54,0.853,0.54,1.489V48.9
				c0,0.629-0.18,1.122-0.54,1.479c-0.36,0.357-0.858,0.535-1.495,0.535c-0.623,0-1.117-0.177-1.484-0.53
				c-0.367-0.353-0.55-0.848-0.55-1.484v-1.416c0-0.636,0.182-1.133,0.545-1.489C58.51,45.638,59.007,45.46,59.636,45.46z
				 M59.636,46.121c-0.392,0-0.71,0.113-0.955,0.341c-0.245,0.227-0.367,0.55-0.367,0.97v1.521c0,0.419,0.123,0.741,0.367,0.965
				c0.245,0.224,0.563,0.336,0.955,0.336c0.398,0,0.718-0.112,0.959-0.336c0.241-0.224,0.362-0.545,0.362-0.965v-1.521
				c0-0.42-0.121-0.743-0.362-0.97C60.354,46.234,60.035,46.121,59.636,46.121z"/>
			<path fill="#999999" d="M64.87,45.46c0.258,0,0.507,0.03,0.745,0.089c0.237,0.06,0.458,0.142,0.661,0.247
				c0.133,0.07,0.199,0.171,0.199,0.304c0,0.098-0.03,0.176-0.089,0.236c-0.059,0.06-0.138,0.089-0.236,0.089
				c-0.07,0-0.129-0.01-0.178-0.031s-0.112-0.049-0.189-0.084c-0.125-0.056-0.267-0.101-0.425-0.136
				c-0.157-0.035-0.327-0.052-0.508-0.052c-0.371,0-0.665,0.112-0.881,0.335s-0.325,0.535-0.325,0.934v1.594
				c0,0.398,0.107,0.709,0.32,0.933c0.213,0.224,0.508,0.336,0.886,0.336c0.182,0,0.351-0.018,0.508-0.053
				c0.158-0.035,0.299-0.08,0.425-0.136c0.077-0.035,0.14-0.063,0.189-0.084s0.105-0.031,0.168-0.031
				c0.098,0,0.178,0.031,0.241,0.094s0.094,0.144,0.094,0.241c0,0.126-0.066,0.228-0.199,0.304
				c-0.203,0.119-0.423,0.203-0.661,0.251c-0.238,0.049-0.486,0.074-0.745,0.074c-0.595,0-1.066-0.173-1.416-0.519
				c-0.35-0.346-0.524-0.816-0.524-1.411V47.39c0-0.608,0.178-1.082,0.535-1.421C63.821,45.63,64.29,45.46,64.87,45.46z"/>
			<path fill="#999999" d="M71.016,45.46c0.105,0,0.19,0.033,0.257,0.1c0.066,0.067,0.1,0.152,0.1,0.257v4.405
				c0,0.21-0.116,0.353-0.346,0.43c-0.259,0.084-0.518,0.148-0.776,0.194s-0.528,0.068-0.808,0.068c-0.65,0-1.136-0.164-1.458-0.493
				c-0.322-0.329-0.483-0.79-0.483-1.384v-3.22c0-0.105,0.033-0.19,0.1-0.257c0.066-0.066,0.152-0.1,0.257-0.1
				c0.098,0,0.182,0.033,0.251,0.1c0.07,0.067,0.105,0.152,0.105,0.257v3.241c0,0.377,0.103,0.671,0.31,0.881
				c0.206,0.21,0.512,0.315,0.917,0.315c0.21,0,0.416-0.018,0.619-0.053c0.203-0.035,0.402-0.08,0.598-0.136v-4.248
				c0-0.105,0.035-0.19,0.105-0.257C70.834,45.493,70.918,45.46,71.016,45.46z"/>
			<path fill="#999999" d="M77.77,45.46c0.272,0,0.521,0.041,0.745,0.121c0.224,0.081,0.417,0.198,0.582,0.352
				c0.164,0.154,0.292,0.346,0.383,0.577c0.091,0.231,0.136,0.493,0.136,0.787v3.251c0,0.112-0.033,0.201-0.1,0.268
				s-0.152,0.1-0.257,0.1s-0.19-0.033-0.257-0.1c-0.067-0.066-0.1-0.156-0.1-0.268v-3.272c0-0.384-0.11-0.673-0.331-0.865
				c-0.22-0.192-0.484-0.288-0.792-0.288c-0.217,0-0.411,0.037-0.582,0.11S76.861,46.4,76.7,46.52v4.027
				c0,0.112-0.033,0.201-0.1,0.268s-0.152,0.1-0.257,0.1c-0.105,0-0.191-0.033-0.257-0.1s-0.1-0.156-0.1-0.268v-3.702
				c0-0.14-0.04-0.257-0.121-0.352s-0.169-0.169-0.268-0.226c-0.175-0.098-0.384-0.146-0.629-0.146c-0.21,0-0.411,0.017-0.603,0.052
				c-0.192,0.035-0.387,0.081-0.583,0.136v4.237c0,0.112-0.033,0.201-0.1,0.268s-0.152,0.1-0.257,0.1s-0.19-0.033-0.257-0.1
				s-0.1-0.156-0.1-0.268v-4.384c0-0.216,0.115-0.363,0.346-0.44c0.258-0.077,0.517-0.14,0.776-0.188s0.528-0.074,0.808-0.074
				c0.545,0,0.986,0.168,1.322,0.503c0.209-0.161,0.445-0.285,0.708-0.372S77.539,45.46,77.77,45.46z"/>
			<path fill="#999999" d="M82.972,45.46c0.601,0,1.075,0.177,1.421,0.53s0.519,0.82,0.519,1.4v0.608c0,0.112-0.04,0.215-0.121,0.31
				c-0.08,0.094-0.194,0.142-0.341,0.142h-2.706v0.566c0,0.35,0.102,0.644,0.304,0.881c0.203,0.238,0.51,0.357,0.923,0.357
				c0.23,0,0.438-0.023,0.624-0.068c0.185-0.045,0.365-0.103,0.54-0.173c0.112-0.042,0.196-0.063,0.251-0.063
				c0.098,0,0.178,0.031,0.241,0.094s0.095,0.14,0.095,0.231c0,0.14-0.067,0.241-0.199,0.304c-0.231,0.105-0.492,0.188-0.782,0.247
				c-0.29,0.06-0.547,0.089-0.771,0.089c-0.308,0-0.583-0.047-0.824-0.142s-0.444-0.227-0.608-0.398
				c-0.165-0.171-0.291-0.376-0.378-0.614s-0.131-0.497-0.131-0.776V47.39c0-0.294,0.045-0.56,0.136-0.797s0.22-0.44,0.388-0.608
				c0.167-0.167,0.372-0.297,0.613-0.388S82.678,45.46,82.972,45.46z M82.972,46.121c-0.406,0-0.712,0.112-0.918,0.335
				s-0.31,0.524-0.31,0.902v0.419h2.455v-0.398c0-0.392-0.104-0.699-0.31-0.923C83.683,46.233,83.377,46.121,82.972,46.121z"/>
			<path fill="#999999" d="M88.332,45.46c0.643,0,1.127,0.165,1.453,0.493c0.325,0.329,0.487,0.79,0.487,1.384v3.22
				c0,0.105-0.035,0.191-0.104,0.257c-0.07,0.066-0.154,0.1-0.252,0.1c-0.105,0-0.19-0.033-0.257-0.1s-0.1-0.152-0.1-0.257v-3.23
				c0-0.385-0.105-0.682-0.315-0.892c-0.209-0.21-0.514-0.314-0.912-0.314c-0.217,0-0.425,0.017-0.624,0.052
				c-0.2,0.035-0.4,0.081-0.604,0.136v4.248c0,0.105-0.033,0.191-0.1,0.257s-0.152,0.1-0.257,0.1c-0.098,0-0.182-0.033-0.251-0.1
				c-0.07-0.066-0.105-0.152-0.105-0.257v-4.395c0-0.224,0.119-0.37,0.356-0.44c0.259-0.077,0.516-0.14,0.771-0.188
				S88.044,45.46,88.332,45.46z"/>
			<path fill="#999999" d="M92.264,43.352c0.105,0,0.19,0.033,0.257,0.1s0.1,0.152,0.1,0.257v1.856h1.228
				c0.112,0,0.199,0.033,0.262,0.1s0.094,0.149,0.094,0.247c0,0.098-0.031,0.178-0.094,0.241s-0.15,0.094-0.262,0.094h-1.228v3.178
				c0,0.272,0.063,0.477,0.189,0.613s0.304,0.205,0.535,0.205c0.14,0,0.243-0.009,0.309-0.026c0.066-0.017,0.135-0.026,0.205-0.026
				c0.098,0,0.18,0.028,0.247,0.084c0.066,0.056,0.1,0.14,0.1,0.251c0,0.189-0.102,0.301-0.304,0.335
				c-0.112,0.021-0.21,0.035-0.293,0.042c-0.084,0.007-0.179,0.011-0.283,0.011c-0.406,0-0.743-0.124-1.012-0.373
				c-0.27-0.248-0.404-0.624-0.404-1.127v-5.706c0-0.105,0.035-0.19,0.105-0.257C92.083,43.385,92.166,43.352,92.264,43.352z"/>
			<path fill="#999999" d="M96.638,45.46c0.245,0,0.482,0.026,0.713,0.079c0.23,0.053,0.44,0.121,0.629,0.205
				c0.14,0.063,0.209,0.165,0.209,0.304c0,0.098-0.033,0.177-0.1,0.236c-0.066,0.06-0.142,0.089-0.226,0.089
				c-0.077,0-0.161-0.018-0.251-0.052c-0.147-0.056-0.294-0.103-0.44-0.142c-0.147-0.039-0.322-0.058-0.524-0.058
				c-0.119,0-0.236,0.016-0.352,0.047c-0.115,0.032-0.217,0.079-0.304,0.142s-0.159,0.142-0.215,0.236
				c-0.056,0.095-0.084,0.205-0.084,0.331c0,0.203,0.068,0.362,0.205,0.477c0.136,0.116,0.295,0.212,0.477,0.289l0.913,0.388
				c0.314,0.133,0.566,0.304,0.755,0.514c0.188,0.21,0.283,0.493,0.283,0.85c0,0.224-0.04,0.429-0.121,0.614
				c-0.08,0.185-0.194,0.344-0.341,0.477c-0.146,0.133-0.325,0.238-0.535,0.315c-0.21,0.077-0.444,0.115-0.703,0.115
				c-0.28,0-0.539-0.028-0.776-0.084s-0.455-0.133-0.65-0.231c-0.133-0.062-0.2-0.161-0.2-0.293c0-0.098,0.03-0.176,0.089-0.236
				c0.059-0.06,0.138-0.089,0.236-0.089c0.035,0,0.074,0.009,0.116,0.026c0.042,0.018,0.083,0.033,0.125,0.047
				c0.119,0.042,0.262,0.086,0.43,0.131s0.367,0.068,0.598,0.068c0.315,0,0.566-0.081,0.755-0.241
				c0.189-0.161,0.283-0.36,0.283-0.598c0-0.363-0.301-0.667-0.902-0.913l-0.776-0.325c-0.112-0.049-0.226-0.107-0.341-0.173
				s-0.219-0.152-0.31-0.257s-0.164-0.229-0.22-0.373c-0.056-0.143-0.084-0.312-0.084-0.508c0-0.21,0.042-0.402,0.126-0.577
				s0.199-0.323,0.346-0.446c0.147-0.122,0.32-0.216,0.519-0.283C96.192,45.493,96.407,45.46,96.638,45.46z"/>
			<path fill="#999999" d="M104.441,45.46c0.587,0,1.057,0.159,1.411,0.478c0.353,0.318,0.529,0.799,0.529,1.442v1.625
				c0,0.315-0.047,0.593-0.142,0.834c-0.094,0.241-0.224,0.44-0.388,0.598c-0.165,0.158-0.362,0.276-0.593,0.357
				c-0.231,0.08-0.482,0.121-0.755,0.121c-0.203,0-0.418-0.032-0.645-0.095c-0.228-0.062-0.442-0.164-0.646-0.304v2.276
				c0,0.104-0.033,0.19-0.1,0.257s-0.152,0.1-0.257,0.1c-0.098,0-0.182-0.033-0.251-0.1c-0.07-0.066-0.105-0.152-0.105-0.257v-6.629
				c0-0.216,0.101-0.36,0.304-0.43c0.258-0.098,0.524-0.168,0.797-0.21C103.875,45.481,104.154,45.46,104.441,45.46z
				 M104.441,46.121c-0.434,0-0.843,0.062-1.228,0.188v3.482c0.175,0.147,0.367,0.261,0.577,0.341
				c0.209,0.08,0.426,0.121,0.65,0.121c0.398,0,0.703-0.104,0.912-0.31c0.21-0.206,0.315-0.501,0.315-0.886v-1.73
				c0-0.378-0.105-0.673-0.315-0.886C105.144,46.228,104.84,46.121,104.441,46.121z"/>
			<path fill="#999999" d="M109.748,45.46c0.636,0,1.134,0.178,1.495,0.535c0.36,0.356,0.54,0.853,0.54,1.489V48.9
				c0,0.629-0.18,1.122-0.54,1.479c-0.36,0.357-0.858,0.535-1.495,0.535c-0.623,0-1.117-0.177-1.484-0.53
				c-0.367-0.353-0.55-0.848-0.55-1.484v-1.416c0-0.636,0.182-1.133,0.545-1.489C108.622,45.638,109.119,45.46,109.748,45.46z
				 M109.748,46.121c-0.392,0-0.71,0.113-0.955,0.341c-0.245,0.227-0.367,0.55-0.367,0.97v1.521c0,0.419,0.123,0.741,0.367,0.965
				c0.245,0.224,0.563,0.336,0.955,0.336c0.398,0,0.718-0.112,0.959-0.336c0.241-0.224,0.362-0.545,0.362-0.965v-1.521
				c0-0.42-0.121-0.743-0.362-0.97C110.466,46.234,110.146,46.121,109.748,46.121z"/>
			<path fill="#999999" d="M119.041,45.46c0.111,0,0.197,0.035,0.257,0.105c0.059,0.07,0.089,0.15,0.089,0.241
				c0,0.063-0.011,0.119-0.031,0.168l-1.332,4.573c-0.07,0.245-0.224,0.367-0.462,0.367c-0.224,0-0.37-0.119-0.44-0.357
				l-1.038-3.744l-1.049,3.744c-0.07,0.238-0.224,0.357-0.462,0.357c-0.224,0-0.37-0.123-0.44-0.367l-1.332-4.573
				c-0.021-0.049-0.031-0.105-0.031-0.168c0-0.091,0.03-0.171,0.089-0.241c0.06-0.07,0.146-0.105,0.258-0.105
				c0.076,0,0.146,0.02,0.209,0.058c0.063,0.039,0.108,0.104,0.137,0.194l1.122,4.143l1.08-4.069
				c0.057-0.217,0.192-0.325,0.409-0.325s0.354,0.108,0.409,0.325l1.091,4.059l1.122-4.132c0.028-0.091,0.073-0.156,0.137-0.194
				C118.893,45.479,118.963,45.46,119.041,45.46z"/>
			<path fill="#999999" d="M122.312,45.46c0.602,0,1.075,0.177,1.422,0.53c0.346,0.353,0.519,0.82,0.519,1.4v0.608
				c0,0.112-0.04,0.215-0.12,0.31c-0.081,0.094-0.194,0.142-0.341,0.142h-2.706v0.566c0,0.35,0.101,0.644,0.304,0.881
				c0.203,0.238,0.511,0.357,0.923,0.357c0.231,0,0.439-0.023,0.624-0.068c0.186-0.045,0.365-0.103,0.54-0.173
				c0.112-0.042,0.196-0.063,0.252-0.063c0.098,0,0.179,0.031,0.241,0.094c0.063,0.063,0.095,0.14,0.095,0.231
				c0,0.14-0.066,0.241-0.199,0.304c-0.23,0.105-0.491,0.188-0.781,0.247c-0.291,0.06-0.548,0.089-0.771,0.089
				c-0.308,0-0.582-0.047-0.823-0.142s-0.444-0.227-0.608-0.398s-0.29-0.376-0.377-0.614c-0.088-0.238-0.132-0.497-0.132-0.776
				V47.39c0-0.294,0.046-0.56,0.137-0.797s0.221-0.44,0.388-0.608c0.168-0.167,0.373-0.297,0.614-0.388S122.019,45.46,122.312,45.46
				z M122.312,46.121c-0.405,0-0.711,0.112-0.917,0.335c-0.207,0.224-0.31,0.524-0.31,0.902v0.419h2.454v-0.398
				c0-0.392-0.104-0.699-0.31-0.923S122.717,46.121,122.312,46.121z"/>
			<path fill="#999999" d="M127.125,45.46c0.259,0,0.511,0.025,0.756,0.074c0.195,0.049,0.293,0.164,0.293,0.346
				c0,0.098-0.033,0.177-0.1,0.236s-0.148,0.089-0.246,0.089c-0.063,0-0.148-0.012-0.257-0.037
				c-0.108-0.024-0.243-0.037-0.404-0.037c-0.202,0-0.374,0.07-0.514,0.21c-0.14,0.14-0.21,0.332-0.21,0.577v3.639
				c0,0.105-0.033,0.191-0.1,0.257s-0.152,0.1-0.257,0.1c-0.098,0-0.182-0.033-0.252-0.1c-0.069-0.066-0.104-0.152-0.104-0.257
				v-3.66c0-0.44,0.129-0.79,0.388-1.049S126.713,45.46,127.125,45.46z"/>
			<path fill="#999999" d="M130.985,45.46c0.602,0,1.075,0.177,1.422,0.53c0.346,0.353,0.519,0.82,0.519,1.4v0.608
				c0,0.112-0.04,0.215-0.12,0.31c-0.081,0.094-0.194,0.142-0.341,0.142h-2.706v0.566c0,0.35,0.101,0.644,0.304,0.881
				c0.203,0.238,0.511,0.357,0.923,0.357c0.231,0,0.439-0.023,0.624-0.068c0.186-0.045,0.365-0.103,0.54-0.173
				c0.112-0.042,0.196-0.063,0.252-0.063c0.098,0,0.179,0.031,0.241,0.094c0.063,0.063,0.095,0.14,0.095,0.231
				c0,0.14-0.066,0.241-0.199,0.304c-0.23,0.105-0.491,0.188-0.781,0.247c-0.291,0.06-0.548,0.089-0.771,0.089
				c-0.308,0-0.582-0.047-0.823-0.142s-0.444-0.227-0.608-0.398s-0.29-0.376-0.377-0.614c-0.088-0.238-0.132-0.497-0.132-0.776
				V47.39c0-0.294,0.046-0.56,0.137-0.797s0.221-0.44,0.388-0.608c0.168-0.167,0.373-0.297,0.614-0.388S130.692,45.46,130.985,45.46
				z M130.985,46.121c-0.405,0-0.711,0.112-0.917,0.335c-0.207,0.224-0.31,0.524-0.31,0.902v0.419h2.454v-0.398
				c0-0.392-0.104-0.699-0.31-0.923S131.39,46.121,130.985,46.121z"/>
			<path fill="#999999" d="M137.781,43.352c0.098,0,0.182,0.033,0.252,0.1c0.069,0.066,0.104,0.152,0.104,0.257v6.503
				c0,0.104-0.027,0.194-0.084,0.267c-0.056,0.074-0.133,0.128-0.23,0.163c-0.259,0.098-0.524,0.168-0.797,0.21
				s-0.549,0.063-0.829,0.063c-0.58,0-1.05-0.157-1.41-0.472c-0.36-0.314-0.54-0.793-0.54-1.437v-1.636
				c0-0.315,0.047-0.593,0.142-0.834c0.094-0.241,0.226-0.44,0.394-0.598c0.167-0.158,0.365-0.276,0.592-0.357
				c0.228-0.08,0.478-0.121,0.75-0.121c0.203,0,0.42,0.033,0.65,0.1c0.23,0.067,0.447,0.17,0.65,0.31v-2.161
				c0-0.105,0.033-0.19,0.1-0.257S137.676,43.352,137.781,43.352z M136.197,46.121c-0.398,0-0.704,0.104-0.917,0.314
				c-0.214,0.21-0.32,0.507-0.32,0.892v1.73c0,0.377,0.106,0.671,0.32,0.881c0.213,0.21,0.519,0.315,0.917,0.315
				c0.21,0,0.418-0.014,0.624-0.042c0.207-0.028,0.407-0.074,0.604-0.137v-3.492c-0.182-0.147-0.378-0.261-0.587-0.341
				C136.627,46.161,136.414,46.121,136.197,46.121z"/>
			<path fill="#999999" d="M142.941,43.352c0.104,0,0.19,0.033,0.257,0.1s0.1,0.152,0.1,0.257v2.161
				c0.203-0.14,0.418-0.243,0.646-0.31c0.227-0.066,0.442-0.1,0.645-0.1c0.272,0,0.524,0.041,0.756,0.121
				c0.23,0.081,0.428,0.199,0.592,0.357c0.164,0.157,0.294,0.356,0.389,0.598c0.094,0.241,0.142,0.519,0.142,0.834v1.625
				c0,0.644-0.177,1.124-0.53,1.442c-0.353,0.318-0.823,0.478-1.41,0.478c-0.287,0-0.566-0.021-0.839-0.063
				c-0.273-0.042-0.539-0.112-0.798-0.21c-0.202-0.07-0.304-0.213-0.304-0.43v-6.503c0-0.105,0.035-0.19,0.104-0.257
				C142.759,43.385,142.843,43.352,142.941,43.352z M144.525,46.121c-0.224,0-0.44,0.04-0.65,0.121
				c-0.21,0.08-0.402,0.194-0.577,0.341v3.492c0.196,0.063,0.397,0.109,0.604,0.137s0.414,0.042,0.624,0.042
				c0.398,0,0.702-0.107,0.912-0.32c0.21-0.213,0.314-0.508,0.314-0.886v-1.72c0-0.385-0.104-0.682-0.314-0.892
				S144.923,46.121,144.525,46.121z"/>
			<path fill="#999999" d="M151.394,45.46c0.119,0,0.206,0.035,0.263,0.105c0.056,0.07,0.084,0.15,0.084,0.241
				c0,0.049-0.011,0.105-0.032,0.168l-2.023,5.863c-0.161,0.461-0.402,0.795-0.724,1.001c-0.322,0.207-0.707,0.31-1.154,0.31
				c-0.098,0-0.182-0.03-0.252-0.089c-0.069-0.059-0.104-0.145-0.104-0.257c0-0.098,0.029-0.177,0.089-0.236
				c0.06-0.06,0.142-0.093,0.247-0.1c0.279-0.007,0.527-0.074,0.744-0.199c0.217-0.126,0.378-0.343,0.482-0.65l0.283-0.797
				l-1.804-4.845c-0.021-0.063-0.031-0.119-0.031-0.168c0-0.091,0.027-0.171,0.084-0.241c0.056-0.07,0.143-0.105,0.262-0.105
				c0.168,0,0.283,0.088,0.347,0.262l1.51,4.164l1.385-4.164C151.104,45.548,151.219,45.46,151.394,45.46z"/>
			<path fill="#999999" d="M158.966,43.352c0.098,0,0.182,0.033,0.252,0.1c0.069,0.066,0.104,0.152,0.104,0.257v6.503
				c0,0.104-0.027,0.194-0.084,0.267c-0.056,0.074-0.133,0.128-0.23,0.163c-0.259,0.098-0.524,0.168-0.797,0.21
				s-0.549,0.063-0.829,0.063c-0.58,0-1.05-0.157-1.41-0.472c-0.36-0.314-0.54-0.793-0.54-1.437v-1.636
				c0-0.315,0.047-0.593,0.142-0.834c0.094-0.241,0.226-0.44,0.394-0.598c0.167-0.158,0.365-0.276,0.592-0.357
				c0.228-0.08,0.478-0.121,0.75-0.121c0.203,0,0.42,0.033,0.65,0.1c0.23,0.067,0.447,0.17,0.65,0.31v-2.161
				c0-0.105,0.033-0.19,0.1-0.257S158.862,43.352,158.966,43.352z M157.382,46.121c-0.398,0-0.704,0.104-0.917,0.314
				c-0.214,0.21-0.32,0.507-0.32,0.892v1.73c0,0.377,0.106,0.671,0.32,0.881c0.213,0.21,0.519,0.315,0.917,0.315
				c0.21,0,0.418-0.014,0.624-0.042c0.207-0.028,0.407-0.074,0.604-0.137v-3.492c-0.182-0.147-0.378-0.261-0.587-0.341
				C157.813,46.161,157.599,46.121,157.382,46.121z"/>
			<path fill="#999999" d="M162.7,45.46c0.259,0,0.5,0.032,0.724,0.095c0.224,0.062,0.42,0.161,0.588,0.293s0.301,0.297,0.398,0.493
				s0.146,0.423,0.146,0.682v3.22c0,0.098-0.024,0.186-0.073,0.262c-0.049,0.077-0.126,0.133-0.23,0.168
				c-0.21,0.077-0.447,0.136-0.713,0.178c-0.267,0.042-0.532,0.063-0.798,0.063c-0.308,0-0.589-0.03-0.844-0.089
				c-0.256-0.059-0.474-0.154-0.656-0.283c-0.182-0.129-0.321-0.295-0.419-0.498s-0.146-0.447-0.146-0.734
				c0-0.287,0.056-0.531,0.167-0.734c0.112-0.203,0.263-0.367,0.451-0.493s0.407-0.218,0.655-0.278
				c0.248-0.059,0.509-0.089,0.782-0.089h1.111v-0.692c0-0.266-0.097-0.482-0.288-0.65c-0.192-0.168-0.467-0.251-0.823-0.251
				c-0.378,0-0.728,0.08-1.049,0.241c-0.063,0.035-0.123,0.062-0.179,0.083s-0.115,0.032-0.179,0.032c-0.076,0-0.15-0.03-0.22-0.089
				c-0.07-0.059-0.105-0.138-0.105-0.236c0-0.126,0.057-0.224,0.168-0.293c0.182-0.105,0.404-0.198,0.666-0.278
				C162.097,45.5,162.385,45.46,162.7,45.46z M162.71,48.376c-0.385,0-0.701,0.072-0.949,0.215
				c-0.248,0.144-0.372,0.386-0.372,0.729c0,0.189,0.033,0.343,0.1,0.461c0.066,0.119,0.159,0.213,0.277,0.283
				c0.119,0.07,0.261,0.119,0.425,0.147c0.165,0.028,0.349,0.042,0.551,0.042c0.182,0,0.365-0.014,0.551-0.042
				s0.369-0.07,0.551-0.126v-1.709H162.71z"/>
			<path fill="#999999" d="M166.539,43.352c0.104,0,0.19,0.033,0.257,0.1s0.1,0.152,0.1,0.257v1.856h1.228
				c0.111,0,0.199,0.033,0.262,0.1c0.063,0.066,0.095,0.149,0.095,0.247c0,0.098-0.031,0.178-0.095,0.241
				c-0.062,0.063-0.15,0.094-0.262,0.094h-1.228v3.178c0,0.272,0.063,0.477,0.189,0.613c0.125,0.136,0.304,0.205,0.534,0.205
				c0.14,0,0.243-0.009,0.31-0.026c0.066-0.017,0.135-0.026,0.205-0.026c0.098,0,0.18,0.028,0.246,0.084
				c0.066,0.056,0.1,0.14,0.1,0.251c0,0.189-0.102,0.301-0.304,0.335c-0.112,0.021-0.21,0.035-0.294,0.042s-0.179,0.011-0.283,0.011
				c-0.406,0-0.743-0.124-1.013-0.373c-0.269-0.248-0.403-0.624-0.403-1.127v-5.706c0-0.105,0.035-0.19,0.104-0.257
				C166.357,43.385,166.441,43.352,166.539,43.352z"/>
			<path fill="#999999" d="M171.226,45.46c0.259,0,0.5,0.032,0.724,0.095c0.224,0.062,0.42,0.161,0.588,0.293
				s0.301,0.297,0.398,0.493s0.146,0.423,0.146,0.682v3.22c0,0.098-0.024,0.186-0.073,0.262c-0.049,0.077-0.126,0.133-0.23,0.168
				c-0.21,0.077-0.447,0.136-0.713,0.178c-0.267,0.042-0.532,0.063-0.798,0.063c-0.308,0-0.589-0.03-0.844-0.089
				c-0.256-0.059-0.474-0.154-0.656-0.283c-0.182-0.129-0.321-0.295-0.419-0.498s-0.146-0.447-0.146-0.734
				c0-0.287,0.056-0.531,0.167-0.734c0.112-0.203,0.263-0.367,0.451-0.493s0.407-0.218,0.655-0.278
				c0.248-0.059,0.509-0.089,0.782-0.089h1.111v-0.692c0-0.266-0.097-0.482-0.288-0.65c-0.192-0.168-0.467-0.251-0.823-0.251
				c-0.378,0-0.728,0.08-1.049,0.241c-0.063,0.035-0.123,0.062-0.179,0.083s-0.115,0.032-0.179,0.032c-0.076,0-0.15-0.03-0.22-0.089
				c-0.07-0.059-0.105-0.138-0.105-0.236c0-0.126,0.057-0.224,0.168-0.293c0.182-0.105,0.404-0.198,0.666-0.278
				C170.624,45.5,170.912,45.46,171.226,45.46z M171.237,48.376c-0.385,0-0.701,0.072-0.949,0.215
				c-0.248,0.144-0.372,0.386-0.372,0.729c0,0.189,0.033,0.343,0.1,0.461c0.066,0.119,0.159,0.213,0.277,0.283
				c0.119,0.07,0.261,0.119,0.425,0.147c0.165,0.028,0.349,0.042,0.551,0.042c0.182,0,0.365-0.014,0.551-0.042
				s0.369-0.07,0.551-0.126v-1.709H171.237z"/>
		</g>
	</g>
</g>
</svg>
