<?xml version="1.0" encoding="UTF-8" standalone="no"?>
<svg
   xmlns:dc="http://purl.org/dc/elements/1.1/"
   xmlns:cc="http://creativecommons.org/ns#"
   xmlns:rdf="http://www.w3.org/1999/02/22-rdf-syntax-ns#"
   xmlns:svg="http://www.w3.org/2000/svg"
   xmlns="http://www.w3.org/2000/svg"
   xmlns:sodipodi="http://sodipodi.sourceforge.net/DTD/sodipodi-0.dtd"
   xmlns:inkscape="http://www.inkscape.org/namespaces/inkscape"
   width="260"
   height="80"
   viewBox="0 0 260 80"
   version="1.1"
   id="svg2"
   inkscape:version="0.91 r13725"
   sodipodi:docname="substance.svg">
  <metadata
     id="metadata34">
    <rdf:RDF>
      <cc:Work
         rdf:about="">
        <dc:format>image/svg+xml</dc:format>
        <dc:type
           rdf:resource="http://purl.org/dc/dcmitype/StillImage" />
        <dc:title></dc:title>
      </cc:Work>
    </rdf:RDF>
  </metadata>
  <sodipodi:namedview
     pagecolor="#ffffff"
     bordercolor="#666666"
     borderopacity="1"
     objecttolerance="10"
     gridtolerance="10"
     guidetolerance="10"
     inkscape:pageopacity="0"
     inkscape:pageshadow="2"
     inkscape:window-width="1869"
     inkscape:window-height="1056"
     id="namedview32"
     showgrid="false"
     inkscape:zoom="1.4907407"
     inkscape:cx="459.82462"
     inkscape:cy="-100.08946"
     inkscape:window-x="51"
     inkscape:window-y="24"
     inkscape:window-maximized="1"
     inkscape:current-layer="svg2" />
  <!-- Generator: Sketch 43.2 (39069) - http://www.bohemiancoding.com/sketch -->
  <desc
     id="desc4">Created with Sketch.</desc>
  <defs
     id="defs6" />
  <g
     id="Page-1"
     style="fill:#333333;fill-rule:evenodd;stroke:none;stroke-width:1"
     transform="matrix(0.14744098,0,0,0.14744098,2.9531873,19.872348)">
    <g
       id="Group-4"
       style="fill:#333333;fill-rule:nonzero">
      <g
         id="Group-2-Copy"
         style="fill:#333333">
        <path
           d="M 179.78698,0.70588235 C 110.25799,3.2647059 11.076923,54.1 1.0224852,129.5 -8.1798817,199.44118 74.471006,282.34706 139.73964,287.29412 301.97396,299.74706 366.22012,-6.1176471 179.78698,0.70588235 Z M 264.14201,112.1 C 261.75621,171.63529 235.00118,257.78235 164.4497,267.67647 102.07811,276.37647 33.571598,202.68235 26.414201,144 11.247337,19.129412 272.32189,-42.794118 264.14201,112.1 Z"
           id="Shape"
           style="fill:#333333"
           inkscape:connector-curvature="0" />
        <ellipse
           id="Oval"
           transform="matrix(0.81306404,-0.58217426,0.58217426,0.81306404,-55.706873,112.86736)"
           cx="147.89784"
           cy="143.17758"
           rx="30.675913"
           ry="30.707241"
           style="fill:#333333" />
      </g>
      <g
         id="Group-3"
         transform="translate(396.36095,25.588235)"
         style="fill:#333333">
        <path
           d="M 65.041914,121.12598 C 42.345819,116.29724 31.741907,110.7256 31.741907,100.32523 c 0,-8.914617 8.557543,-17.457785 26.230732,-17.457785 20.835758,0 34.602242,15.229127 34.602242,15.229127 L 108.94583,81.195955 c 0,0 -18.417318,-20.800759 -50.973191,-20.800759 -30.695538,0 -50.6011288,19.686433 -50.6011288,39.558586 0,25.815228 20.8357588,37.515658 50.2290608,43.458728 21.207826,4.27159 31.253639,10.02894 31.253639,21.91509 0,10.95754 -15.812853,16.90061 -29.76537,16.90061 -27.1609,0 -41.671518,-22.28652 -41.671518,-22.28652 L 0.11620136,175.9137 c 0,0 20.27765764,28.78676 58.97263864,28.78676 26.416766,0 54.50783,-13.74336 54.50783,-40.11575 0,-28.04388 -22.324024,-37.88709 -48.554756,-43.45873 z"
           id="path14"
           style="fill:#333333"
           inkscape:connector-curvature="0" />
        <path
           d="m 238.92361,158.82736 c 0,0 -10.97598,22.65797 -34.23017,22.65797 -18.41733,0 -33.11398,-10.02894 -33.11398,-33.61551 l 0,-84.131645 -24.92849,0 0,88.217505 c 0,33.80123 24.37039,52.55906 51.71733,52.55906 29.76537,0 42.22961,-24.7009 42.22961,-24.7009 l 0,21.1722 23.2542,0 0,-137.247865 -24.9285,0 0,95.089185 0,0 z"
           id="path16"
           style="fill:#333333"
           inkscape:connector-curvature="0" />
        <path
           d="m 378.76117,60.209475 c -30.32347,0 -44.27599,20.429317 -44.27599,20.429317 l 0,-73.4836339 -24.92849,-6.82352941 0,200.84013131 22.88212,0 0,-19.87215 c 0,0 13.39442,23.40085 46.50839,23.40085 37.20672,0 66.60002,-31.7583 66.60002,-72.24549 0,-40.487193 -29.57934,-72.245495 -66.78605,-72.245495 z m -3.90671,121.275855 c -27.34693,0 -40.55531,-23.7723 -40.55531,-23.7723 l 0,-50.51613 c 0,0 13.02235,-23.772292 40.55531,-23.772292 27.34694,0 45.57823,21.915082 45.57823,49.030362 0,27.11527 -17.67319,49.03036 -45.57823,49.03036 z"
           id="path18"
           style="fill:#333333"
           inkscape:connector-curvature="0" />
        <path
           d="m 533.10934,121.12598 c -22.69609,-4.82874 -33.3,-10.40038 -33.3,-20.80075 0,-8.914617 8.55754,-17.457785 26.23073,-17.457785 20.83576,0 34.60224,15.229127 34.60224,15.229127 l 16.37096,-16.900617 c 0,0 -18.41733,-20.800759 -50.9732,-20.800759 -30.69554,0 -50.60113,19.686433 -50.60113,39.558586 0,25.815228 20.83576,37.515658 50.22906,43.458728 21.20783,4.27159 31.25364,10.02894 31.25364,21.91509 0,10.95754 -15.81285,16.90061 -29.76537,16.90061 -27.1609,0 -41.67152,-22.28652 -41.67152,-22.28652 l -17.30112,15.97201 c 0,0 20.27766,28.78676 58.97264,28.78676 26.41677,0 54.50783,-13.74336 54.50783,-40.11575 -0.18603,-28.04388 -22.51006,-37.88709 -48.55476,-43.45873 z"
           id="path20"
           style="fill:#333333"
           inkscape:connector-curvature="0" />
        <path
           d="m 676.29551,181.48533 c -13.39442,0 -19.90559,-7.80029 -19.90559,-21.1722 l 0,-73.916985 42.78771,0 0,-22.65797 -42.78771,0 0,-47.090607 -24.9285,6.823529 0,40.267078 -26.78883,0 0,22.65797 26.78883,0 0,75.217025 c 0,30.27254 21.76593,43.08729 41.29945,43.08729 7.99944,0 16.74302,-1.85721 28.64917,-8.35745 l -9.30168,-20.42931 c 0,-0.18572 -8.18548,5.57163 -15.81285,5.57163 z"
           id="path22"
           style="fill:#333333"
           inkscape:connector-curvature="0" />
        <path
           d="m 832.69005,83.610329 c 0,0 -13.39442,-23.400854 -47.06649,-23.400854 -36.64861,0 -66.04191,31.758302 -66.04191,72.245495 0,40.48719 29.3933,72.24549 66.04191,72.24549 33.67207,0 47.06649,-23.40085 47.06649,-23.40085 l 0,19.87215 22.88213,0 0,-137.433585 -22.88213,0 0,19.872154 z m -2.2324,74.659871 c 0,0 -13.39442,23.21513 -40.18325,23.21513 -27.90503,0 -45.76426,-21.91509 -45.76426,-49.03036 0,-27.11528 17.85923,-49.030362 45.76426,-49.030362 26.78883,0 40.18325,23.215132 40.18325,23.215132 l 0,51.63046 z"
           id="path24"
           style="fill:#333333"
           inkscape:connector-curvature="0" />
        <path
           d="m 964.7142,60.209475 c -29.76537,0 -42.22962,22.843691 -42.22962,22.843691 l 0,-19.314991 -23.25419,0 0,137.247865 24.92849,0 0,-94.53202 c 0,0 11.90615,-23.215133 34.23018,-23.215133 18.41732,0 33.11397,10.028937 33.11397,33.615513 l 0,84.13164 24.92847,0 0,-88.2175 c 0,-33.801238 -24.37037,-52.559065 -51.7173,-52.559065 z"
           id="path26"
           style="fill:#333333"
           inkscape:connector-curvature="0" />
        <path
           d="m 1121.2948,181.48533 c -27.719,0 -45.7643,-21.91509 -45.7643,-49.03036 0,-27.11528 18.2313,-49.030362 45.7643,-49.030362 24.3704,0 37.7648,16.714892 37.7648,16.714892 l 16.929,-15.229124 c 0,0 -19.7195,-24.700901 -54.6938,-24.700901 -40.5553,0 -70.8788,32.129744 -70.8788,72.245495 0,40.48719 30.3235,72.24549 70.8788,72.24549 36.2765,0 56.1821,-26.37239 56.1821,-26.37239 l -15.9989,-16.34345 c 0,-0.18572 -13.3944,19.50071 -40.1832,19.50071 z"
           id="path28"
           style="fill:#333333"
           inkscape:connector-curvature="0" />
        <path
           d="m 1330.7089,133.19785 c 0,-44.20161 -28.6492,-73.174096 -66.9721,-73.174096 -41.2994,0 -68.8324,32.129744 -68.8324,72.245496 0,40.67291 30.1374,72.24549 71.8089,72.24549 36.2766,0 57.1123,-27.11527 57.1123,-27.11527 l -15.8128,-16.34346 c 0,0 -14.3246,20.2436 -41.2995,20.2436 -25.8586,0 -45.7642,-19.31499 -47.2525,-40.11575 l 111.0621,0 c 0.186,-3.15726 0.186,-5.20019 0.186,-7.98601 z m -110.69,-12.62903 c 1.8604,-14.30052 13.9525,-37.144212 43.7179,-37.144212 27.719,0 41.6715,21.729362 42.6017,37.144212 l -86.3196,0 z"
           id="path30"
           style="fill:#333333"
           inkscape:connector-curvature="0" />
      </g>
    </g>
  </g>
</svg>
